PathFileType	4	(X/Y/Z)	D:\TRACE\v60_Jaco2_6-2-23\JustBodyDRS_Motion3_5-platform.trc
DataRate	CameraRate	NumFrames	NumMarkers	Units	OrigDataRate	OrigDataStartFrame	OrigNumFrames
100.00	100.00	      72	5	mm	100.00	1	      7000
Frame#	Time	Left_Front			Right_Front			Left_Aft			Right_Aft			Post			
		X1	Y1	Z1	X2	Y2	Z2	X3	Y3	Z3	X4	Y4	Z4	X5	Y5	Z5	

1	0.000	-814.60101	128.40265	-611.93823	755.92847	125.73122	-588.83148	-745.70483	-74.05625	504.26276	668.66791	-92.28991	608.22577	-21.63878	1462.12988	-684.17249	
2	0.010	-814.59595	128.43225	-611.90088	755.90009	125.72897	-588.83167	-745.68451	-74.05037	504.27545	668.73132	-92.27220	608.24030	-21.62512	1462.12354	-684.17419	
3	0.020	-814.58112	128.38654	-611.93073	755.92615	125.76523	-588.79944	-745.69751	-74.04881	504.27332	668.73193	-92.26876	608.24738	-21.64865	1462.14514	-684.19458	
4	0.030	-814.61560	128.45354	-611.96552	755.93701	125.73710	-588.82587	-745.70319	-74.06689	504.26950	668.69604	-92.26736	608.25897	-21.59683	1462.13025	-684.17969	
5	0.040	-814.56915	128.37784	-611.96472	755.89362	125.74963	-588.83063	-745.72101	-74.04662	504.28857	668.69196	-92.27259	608.26672	-21.64045	1462.14063	-684.17566	
6	0.050	-814.57050	128.37477	-611.94452	755.88782	125.73828	-588.83679	-745.67572	-74.04845	504.25900	668.71997	-92.26217	608.27014	-21.66580	1462.11584	-684.17926	
7	0.060	-814.58221	128.40331	-611.91888	755.90442	125.73447	-588.80664	-745.69763	-74.04914	504.28589	668.67450	-92.27731	608.25995	-21.68844	1462.11658	-684.21698	
8	0.070	-814.55719	128.36130	-611.97198	755.91022	125.72932	-588.81989	-745.69391	-74.05167	504.27640	668.69690	-92.27647	608.23523	-21.61878	1462.11597	-684.16144	
9	0.080	-814.55017	128.35257	-611.95953	755.94208	125.73473	-588.82672	-745.71930	-74.01723	504.26413	668.68170	-92.26038	608.26971	-21.60501	1462.13391	-684.20081	
10	0.090	-814.57660	128.39442	-611.93237	755.92261	125.75396	-588.80725	-745.69214	-74.02288	504.28296	668.69611	-92.27308	608.25305	-21.60692	1462.08679	-684.14838	
11	0.100	-814.54950	128.36194	-611.96997	755.88416	125.74457	-588.82977	-745.68573	-74.07307	504.29340	668.71295	-92.27740	608.25244	-21.69153	1462.09668	-684.21021	
12	0.110	-814.54913	128.34633	-611.95300	755.89954	125.70965	-588.83026	-745.70026	-74.08160	504.29517	668.62915	-92.29472	608.24420	-21.66551	1462.05713	-684.20178	
13	0.120	-814.55054	128.33492	-611.96313	755.94049	125.72581	-588.78900	-745.68359	-74.08665	504.28235	668.64063	-92.27766	608.26520	-21.67738	1462.08057	-684.18445	
14	0.130	-814.57281	128.38612	-611.93030	755.92157	125.75960	-588.82233	-745.70142	-74.04330	504.28488	668.71686	-92.24681	608.29797	-21.64001	1462.15222	-684.20892	
15	0.140	-814.57623	128.39894	-611.94678	755.91315	125.74873	-588.83026	-745.68341	-74.04617	504.26245	668.67572	-92.27363	608.24023	-21.65633	1462.12024	-684.21490	
16	0.150	-814.59564	128.40797	-611.89587	755.94238	125.73843	-588.79816	-745.68292	-74.03796	504.26068	668.70416	-92.26006	608.25006	-21.66606	1462.15503	-684.20343	
17	0.160	-814.58142	128.38278	-611.92242	755.91351	125.71529	-588.81720	-745.67267	-74.05024	504.26901	668.69086	-92.27844	608.24231	-21.64372	1462.09363	-684.20465	
18	0.170	-814.58252	128.38272	-611.94843	755.87506	125.74200	-588.85046	-745.70306	-74.04653	504.27454	668.63269	-92.28990	608.23413	-21.65564	1462.06189	-684.19757	
19	0.180	-814.57422	128.37352	-611.96570	755.92865	125.74421	-588.81769	-745.67444	-74.05583	504.28973	668.68134	-92.26645	608.25720	-21.61569	1462.12024	-684.18683	
20	0.190	-814.58563	128.42072	-611.96240	755.93268	125.74431	-588.80762	-745.68073	-74.04900	504.26648	668.71326	-92.27564	608.27234	-21.66621	1462.12793	-684.21277	
21	0.200	-814.62286	128.43893	-611.94849	755.91797	125.72246	-588.81219	-745.69751	-74.05269	504.25891	668.66290	-92.25950	608.24384	-21.65276	1462.12915	-684.20593	
22	0.210	-814.55139	128.36461	-611.96191	755.89764	125.76268	-588.81024	-745.70361	-74.04345	504.25012	668.64838	-92.26186	608.26642	-21.67712	1462.13721	-684.19183	
23	0.220	-814.56555	128.37399	-611.95007	755.92944	125.72079	-588.81219	-745.69458	-74.06004	504.27499	668.67792	-92.27126	608.25378	-21.66818	1462.12158	-684.17053	
24	0.230	-814.54956	128.35495	-611.95782	755.86963	125.72962	-588.81750	-745.70593	-74.09460	504.30603	668.66406	-92.26416	608.25269	-21.62913	1462.11169	-684.18079	
25	0.240	-814.60150	128.41757	-611.93109	755.93903	125.72736	-588.81409	-745.70111	-74.06892	504.29477	668.65515	-92.30479	608.23840	-21.64412	1462.11206	-684.20258	
26	0.250	-814.58472	128.41417	-611.95117	755.91772	125.70773	-588.84296	-745.68719	-74.05807	504.28836	668.69849	-92.25557	608.23126	-21.61766	1462.14404	-684.16730	
27	0.260	-814.60132	128.40004	-611.95459	755.92932	125.73476	-588.80255	-745.68768	-74.05414	504.28195	668.67792	-92.26511	608.24121	-21.60072	1462.13757	-684.16840	
28	0.270	-814.57166	128.38193	-611.95935	755.91626	125.73569	-588.81708	-745.69092	-74.08559	504.25708	668.66113	-92.29961	608.23578	-21.66168	1462.09680	-684.18915	
29	0.280	-814.57874	128.36568	-611.93445	755.89465	125.72486	-588.86322	-745.68713	-74.08195	504.30441	668.64258	-92.30068	608.23682	-21.68830	1462.09399	-684.17725	
30	0.290	-814.57745	128.37733	-611.95544	755.89154	125.72906	-588.83362	-745.69897	-74.07441	504.32803	668.69244	-92.27504	608.26349	-21.65833	1462.12415	-684.19287	
31	0.300	-814.54730	128.35213	-611.96979	755.89191	125.73435	-588.83362	-745.69794	-74.07929	504.30548	668.67224	-92.28823	608.25275	-21.67101	1462.10986	-684.18304	
32	0.310	-814.55939	128.36655	-611.95221	755.90204	125.74467	-588.85223	-745.68805	-74.07549	504.25586	668.69885	-92.26711	608.27716	-21.61835	1462.11475	-684.16693	
33	0.320	-814.57104	128.39769	-611.92175	755.92139	125.73035	-588.81299	-745.68262	-74.08628	504.25189	668.66577	-92.27879	608.21967	-21.63796	1462.14441	-684.21436	
34	0.330	-814.58765	128.42653	-611.89673	755.91675	125.74003	-588.80634	-745.69000	-74.09207	504.29407	668.64862	-92.27462	608.25189	-21.66329	1462.11792	-684.20508	
35	0.340	-814.53772	128.35538	-611.92682	755.92627	125.75722	-588.80652	-745.67230	-74.06627	504.27597	668.70099	-92.26129	608.24878	-21.65173	1462.07996	-684.16913	
36	0.350	-814.58557	128.39815	-611.90710	755.92780	125.74113	-588.83661	-745.67578	-74.06939	504.23499	668.68243	-92.26091	608.23022	-21.64072	1462.11340	-684.17981	
37	0.360	-814.58624	128.42709	-611.93121	755.95026	125.77354	-588.78485	-745.68341	-74.05305	504.26624	668.69366	-92.27475	608.26300	-21.61314	1462.12854	-684.20544	
38	0.370	-814.59894	128.43790	-611.91669	755.91077	125.72867	-588.82355	-745.69629	-74.03618	504.23822	668.65735	-92.25790	608.25250	-21.65137	1462.11414	-684.16901	
39	0.380	-814.59924	128.41872	-611.93939	755.91443	125.75862	-588.83655	-745.68555	-74.04543	504.25671	668.67926	-92.26134	608.22943	-21.62756	1462.12793	-684.19464	
40	0.390	-814.57861	128.38603	-611.94196	755.91455	125.72496	-588.83447	-745.69836	-74.05991	504.24893	668.71411	-92.24920	608.24286	-21.63056	1462.11499	-684.18927	
41	0.400	-814.59412	128.40393	-611.91650	755.91138	125.72472	-588.84924	-745.68164	-74.08162	504.25574	668.68451	-92.26722	608.22864	-21.66712	1462.10889	-684.17065	
42	0.410	-814.57123	128.38130	-611.91779	755.90558	125.71476	-588.80359	-745.71362	-74.07012	504.28320	668.64478	-92.29482	608.21820	-21.63828	1462.13708	-684.20062	
43	0.420	-814.58435	128.39040	-611.89972	755.93176	125.73796	-588.78400	-745.67944	-74.05766	504.29135	668.64746	-92.27670	608.21637	-21.64443	1462.10193	-684.20477	
44	0.430	-814.59021	128.37340	-611.93964	755.91003	125.75795	-588.81122	-745.70831	-74.03928	504.27200	668.68262	-92.26218	608.23187	-21.65729	1462.11902	-684.20837	
45	0.440	-814.58722	128.37907	-611.93323	755.91345	125.76197	-588.82190	-745.69617	-74.03001	504.24344	668.67609	-92.26288	608.22424	-21.67059	1462.14111	-684.17969	
46	0.450	-814.57477	128.38335	-611.95178	755.95294	125.74699	-588.79156	-745.70325	-74.05755	504.30344	668.69812	-92.27674	608.24371	-21.60874	1462.12646	-684.17480	
47	0.460	-814.57465	128.40570	-611.91589	755.93835	125.73978	-588.81158	-745.68597	-74.09122	504.27396	668.67175	-92.26283	608.25092	-21.65635	1462.11951	-684.19360	
48	0.470	-814.56885	128.36607	-611.92896	755.96381	125.77094	-588.77789	-745.70752	-74.08000	504.25598	668.69000	-92.28372	608.20300	-21.66906	1462.13770	-684.19421	
49	0.480	-814.57678	128.36971	-611.96381	755.92194	125.72130	-588.80859	-745.70306	-74.06607	504.28525	668.66937	-92.29535	608.22595	-21.66775	1462.09302	-684.17316	
50	0.490	-814.54175	128.34813	-611.95679	755.90967	125.75322	-588.81354	-745.70209	-74.07038	504.25797	668.64520	-92.29263	608.21576	-21.64082	1462.10046	-684.17841	
51	0.500	-814.59052	128.38828	-611.91467	755.91504	125.73123	-588.82385	-745.70184	-74.07417	504.28726	668.67865	-92.27572	608.21075	-21.60086	1462.10437	-684.15698	
52	0.510	-814.59210	128.38350	-611.95538	755.93579	125.73656	-588.82697	-745.68085	-74.05209	504.27646	668.64709	-92.27845	608.25781	-21.66202	1462.12756	-684.18994	
53	0.520	-814.58533	128.38011	-611.95978	755.93701	125.73470	-588.80878	-745.68182	-74.07053	504.23480	668.68469	-92.27299	608.21863	-21.66904	1462.11316	-684.17737	
54	0.530	-814.61200	128.42108	-611.94214	755.94550	125.72565	-588.78198	-745.69489	-74.05344	504.30704	668.67291	-92.28074	608.24738	-21.69122	1462.10400	-684.19788	
55	0.540	-814.56482	128.36703	-611.94598	755.93842	125.74947	-588.82141	-745.68207	-74.06837	504.29218	668.71118	-92.26900	608.23877	-21.68576	1462.11365	-684.19116	
56	0.550	-814.58917	128.40900	-611.94482	755.93115	125.73445	-588.82373	-745.68701	-74.02459	504.23431	668.70233	-92.28194	608.23309	-21.68467	1462.13208	-684.18475	
57	0.560	-814.59216	128.43022	-611.95996	755.93225	125.73701	-588.80157	-745.67407	-74.05891	504.28131	668.68237	-92.30338	608.22760	-21.57460	1462.13684	-684.15405	
58	0.570	-814.56671	128.36610	-611.93298	755.93158	125.72193	-588.81940	-745.68646	-74.08237	504.25394	668.68420	-92.27953	608.21600	-21.64610	1462.10352	-684.20074	
59	0.580	-814.57654	128.41212	-611.89069	755.90759	125.70932	-588.82587	-745.68341	-74.07195	504.27826	668.66052	-92.29736	608.23645	-21.70903	1462.09656	-684.20282	
60	0.590	-814.58374	128.37683	-611.96118	755.89606	125.72636	-588.80396	-745.69330	-74.06728	504.27390	668.64142	-92.28281	608.24854	-21.66619	1462.11621	-684.17584	
61	0.600	-814.59760	128.40971	-611.93579	755.94391	125.75070	-588.79425	-745.69861	-74.04979	504.27771	668.68903	-92.26741	608.26691	-21.64227	1462.09875	-684.18469	
62	0.610	-814.61224	128.41312	-611.95508	755.90015	125.74347	-588.83081	-745.68701	-74.06853	504.27753	668.68915	-92.27313	608.25220	-21.65878	1462.13306	-684.20624	
63	0.620	-814.56262	128.35681	-611.93451	755.89246	125.73026	-588.82251	-745.67206	-74.05815	504.26907	668.67682	-92.27367	608.25378	-21.61535	1462.11963	-684.17377	
64	0.630	-814.56091	128.35379	-611.95013	755.89740	125.75146	-588.81104	-745.68750	-74.06857	504.29922	668.67334	-92.28390	608.26196	-21.68494	1462.09009	-684.18011	
65	0.640	-814.57349	128.38916	-611.91907	755.88147	125.72996	-588.83087	-745.66394	-74.03578	504.27875	668.66010	-92.28272	608.24872	-21.73257	1462.07751	-684.22705	
66	0.650	-814.58044	128.39084	-611.94476	755.87134	125.72346	-588.85333	-745.68652	-74.06884	504.27719	668.62109	-92.27515	608.27313	-21.66850	1462.09705	-684.23779	
67	0.660	-814.57825	128.38132	-611.94611	755.93158	125.74783	-588.82233	-745.66315	-74.05934	504.26825	668.69049	-92.25742	608.26276	-21.61187	1462.09021	-684.19189	
68	0.670	-814.57135	128.44077	-611.97229	755.89423	125.77194	-588.82788	-745.69250	-74.05960	504.27057	668.65765	-92.27863	608.24072	-21.59331	1462.14600	-684.19104	
69	0.680	-814.58051	128.39497	-611.94080	755.88660	125.76154	-588.84430	-745.68884	-74.06493	504.25644	668.69696	-92.26848	608.24426	-21.66096	1462.13794	-684.17865	
70	0.690	-814.59930	128.37819	-611.95911	755.89740	125.73265	-588.84692	-745.68280	-74.07270	504.27463	668.69867	-92.28168	608.27222	-21.66262	1462.06335	-684.16248	
71	0.700	-814.55377	128.37436	-611.93250	755.90393	125.74582	-588.81720	-745.69891	-74.06718	504.32596	668.65460	-92.26444	608.26202	-21.64657	1462.11719	-684.17212	
72	0.710	-814.59637	128.41289	-611.91193	755.87891	125.74464	-588.85602	-745.70612	-74.05501	504.28769	668.70483	-92.26722	608.24445	-21.61490	1462.13257	-684.18073	
